<?xml version="1.0" encoding="utf-8"?>
<!-- Generator: Adobe Illustrator 24.2.0, SVG Export Plug-In . SVG Version: 6.00 Build 0)  -->
<svg version="1.1" id="图层_1" xmlns="http://www.w3.org/2000/svg" xmlns:xlink="http://www.w3.org/1999/xlink" x="0px" y="0px"
	 viewBox="0 0 6.8 6.5" style="enable-background:new 0 0 6.8 6.5;" xml:space="preserve">
<style type="text/css">
	.st0{fill:#F7F6F5;fill-opacity:0.9;}
</style>
<path class="st0" d="M6,1.4H0.8c-0.4,0-0.6-0.3-0.6-0.5l0,0c0-0.4,0.3-0.5,0.6-0.5H6c0.3,0,0.6,0.3,0.6,0.5l0,0
	C6.7,1.2,6.5,1.4,6,1.4z"/>
<path class="st0" d="M6,3.5H0.8C0.4,3.5,0.2,3.2,0.2,3l0,0c0-0.2,0.3-0.5,0.6-0.5H6c0.3,0,0.6,0.2,0.6,0.5l0,0
	C6.7,3.2,6.5,3.5,6,3.5z"/>
<path class="st0" d="M3.7,5.6h-3c-0.3,0-0.5-0.2-0.5-0.4V4.9c0-0.2,0.2-0.4,0.5-0.4h3c0.3,0,0.5,0.2,0.5,0.4v0.2
	C4.3,5.4,4,5.6,3.7,5.6z"/>
</svg>
