<?xml version="1.0" encoding="utf-8"?>
<!-- Generator: Adobe Illustrator 24.2.0, SVG Export Plug-In . SVG Version: 6.00 Build 0)  -->
<svg version="1.1" id="图层_1" xmlns="http://www.w3.org/2000/svg" xmlns:xlink="http://www.w3.org/1999/xlink" x="0px" y="0px"
	 viewBox="0 0 45.4 45.4" style="enable-background:new 0 0 45.4 45.4;" xml:space="preserve">
<style type="text/css">
	.st0{fill:none;stroke:#969596;stroke-width:2;stroke-miterlimit:10;}
</style>
<path class="st0" d="M21.7,10.4c-7.8,0.5-15.4,5.2-18.6,15.2c-0.1,0.4,0.4,0.8,0.8,0.5c5.7-3.7,8.3-1,12.1,0.7
	c0.2,0.1,0.4,0.1,0.6-0.1c2.3-2,7.5-6.3,14.2,0.1c0.2,0.2,0.5,0.2,0.7,0.1c4.6-3.1,6.3-3.2,10.4-0.6c0.4,0.3,0.9-0.1,0.8-0.5
	C37.2,11.5,26,10.5,23.9,10.4c-0.2,0-0.4-0.1-0.5-0.3c-0.3-0.8-1-2.7-1.3-0.1C22.1,10.2,21.9,10.4,21.7,10.4z"/>
<path class="st0" d="M23.4,24L24,39.6c0.1,6.6-5.9,5.9-6.1,0"/>
<path class="st0" d="M13,16l-1.7,5c-0.8,2.8,4.7,2.7,3.9,0L13,16z"/>
<path class="st0" d="M22.8,2.6l-1.7,5c-0.8,2.8,4.7,2.7,3.9,0L22.8,2.6z"/>
<path class="st0" d="M29.2,10.3l-1.7,5c-0.8,2.8,4.7,2.7,3.9,0L29.2,10.3z"/>
<path class="st0" d="M39.4,4.4l-1.7,5c-0.8,2.8,4.7,2.7,3.9,0L39.4,4.4z"/>
<path class="st0" d="M6.1,7.2l-1.7,5c-0.8,2.8,4.7,2.7,3.9,0L6.1,7.2z"/>
</svg>
