<?xml version="1.0" encoding="utf-8"?>
<!-- Generator: Adobe Illustrator 24.2.0, SVG Export Plug-In . SVG Version: 6.00 Build 0)  -->
<svg version="1.1" id="图层_1" xmlns="http://www.w3.org/2000/svg" xmlns:xlink="http://www.w3.org/1999/xlink" x="0px" y="0px"
	 viewBox="0 0 17.01 17.01" style="enable-background:new 0 0 17.01 17.01;" xml:space="preserve">
<style type="text/css">
	.st0{fill:none;stroke:#C6C0BD;stroke-width:2;stroke-miterlimit:10;}
	.st1{fill:#C6C0BD;stroke:#C6C0BD;stroke-linecap:round;stroke-linejoin:round;stroke-miterlimit:10;}
</style>
<path class="st0" d="M8.5,15.68L8.5,15.68c-3.93,0-7.11-3.18-7.11-7.11v0c0-3.93,3.18-7.11,7.11-7.11h0c3.93,0,7.11,3.18,7.11,7.11
	v0C15.61,12.49,12.42,15.68,8.5,15.68z"/>
<path class="st1" d="M8.37,8.88L8.37,8.88c-0.2-0.06-0.31-0.28-0.25-0.47l0.01-0.03c0.07-0.2,0.28-0.3,0.49-0.24h0
	c0.2,0.06,0.31,0.28,0.25,0.47L8.86,8.64C8.79,8.84,8.57,8.95,8.37,8.88z"/>
<rect x="8.46" y="3.03" class="st1" width="0.09" height="4.42"/>
<rect x="9.47" y="8.47" class="st1" width="2.27" height="0.09"/>
</svg>
