<?xml version="1.0" encoding="utf-8"?>
<!-- Generator: Adobe Illustrator 24.2.0, SVG Export Plug-In . SVG Version: 6.00 Build 0)  -->
<svg version="1.1" id="图层_1" xmlns="http://www.w3.org/2000/svg" xmlns:xlink="http://www.w3.org/1999/xlink" x="0px" y="0px"
	 viewBox="0 0 26 26" style="enable-background:new 0 0 26 26;" xml:space="preserve">
<style type="text/css">
	.st0{fill:none;stroke:#A2A2A2;stroke-width:2;stroke-miterlimit:10;}
</style>
<path class="st0" d="M12.61,7.12c-4.1,0.26-8.13,2.72-9.81,8.04c-0.07,0.23,0.2,0.42,0.41,0.28c3-1.96,4.37-0.55,6.36,0.36
	c0.1,0.05,0.22,0.03,0.3-0.04c1.22-1.06,3.93-3.32,7.47,0.05c0.09,0.09,0.25,0.1,0.36,0.03c2.43-1.65,3.32-1.67,5.48-0.3
	c0.22,0.14,0.49-0.06,0.41-0.29c-2.78-7.58-8.69-8.11-9.81-8.14c-0.11,0-0.21-0.07-0.24-0.17c-0.15-0.43-0.55-1.43-0.68-0.04
	C12.85,7.02,12.74,7.11,12.61,7.12z"/>
<path class="st0" d="M13.51,14.26l0.32,8.26c0.07,3.49-3.09,3.11-3.23,0"/>
<path class="st0" d="M8.01,10.04l-0.92,2.62c-0.44,1.47,2.5,1.44,2.05,0L8.01,10.04z"/>
<path class="st0" d="M13.22,3.01L12.3,5.63c-0.44,1.47,2.5,1.44,2.05,0L13.22,3.01z"/>
<path class="st0" d="M16.55,7.04l-0.92,2.62c-0.44,1.47,2.5,1.44,2.05,0L16.55,7.04z"/>
<path class="st0" d="M21.93,3.94l-0.92,2.62c-0.44,1.47,2.5,1.44,2.05,0L21.93,3.94z"/>
<path class="st0" d="M4.37,5.41L3.46,8.03c-0.44,1.47,2.5,1.44,2.05,0L4.37,5.41z"/>
</svg>
